<?xml version="1.0" standalone="no"?>
<!DOCTYPE svg PUBLIC "-//W3C//DTD SVG 20010904//EN"
 "http://www.w3.org/TR/2001/REC-SVG-20010904/DTD/svg10.dtd">
<svg version="1.0" xmlns="http://www.w3.org/2000/svg"
 width="300.000000pt" height="300.000000pt" viewBox="0 0 300.000000 300.000000"
 preserveAspectRatio="xMidYMid meet">
<metadata>
Created by potrace 1.10, written by Peter Selinger 2001-2011
</metadata>
<g transform="translate(0.000000,300.000000) scale(0.100000,-0.100000)"
fill="#000000" stroke="none">
<path d="M1360 2593 c-132 -15 -320 -84 -453 -167 -88 -55 -232 -191 -297
-280 -264 -363 -276 -870 -30 -1245 302 -460 885 -628 1384 -397 505 233 758
821 580 1346 -126 369 -419 630 -814 726 -62 15 -293 26 -370 17z m402 -62
c381 -103 668 -391 770 -769 29 -110 36 -336 14 -456 -72 -382 -345 -695 -712
-815 -129 -42 -233 -55 -388 -48 -436 19 -809 301 -952 720 -71 209 -71 465 0
674 125 366 425 627 812 708 102 21 354 13 456 -14z"/>
<path d="M1413 2519 c-349 -32 -666 -247 -823 -559 -199 -395 -123 -868 189
-1181 415 -415 1077 -399 1478 35 375 408 349 1050 -59 1431 -209 196 -506
300 -785 274z m258 -50 c74 -12 209 -58 284 -97 326 -166 542 -531 530 -898
-12 -367 -221 -692 -550 -854 -319 -157 -676 -135 -972 60 -276 181 -442 482
-444 808 -2 212 55 397 181 581 110 161 291 296 485 362 39 13 72 24 75 24
179 35 271 38 411 14z"/>
<path d="M1486 2375 c-58 -21 -81 -51 -111 -145 -35 -112 -42 -193 -21 -244 9
-22 15 -40 13 -42 -2 -2 -25 3 -52 11 -88 27 -152 16 -191 -32 -18 -21 2 -90
38 -135 57 -72 134 -107 196 -89 l32 10 -6 -78 c-6 -74 -5 -79 16 -94 31 -22
55 -8 71 40 6 21 18 47 25 58 9 12 12 32 8 51 -3 18 1 46 10 68 14 34 18 37
53 34 33 -3 39 1 64 38 16 22 44 52 63 65 56 38 98 131 126 277 12 64 3 86
-60 149 -68 68 -180 92 -274 58z m170 -34 c32 -11 64 -28 69 -37 6 -9 22 -28
38 -42 34 -32 35 -59 0 -176 -36 -123 -71 -173 -138 -196 -28 -9 -31 -14 -27
-45 5 -41 -3 -43 -52 -14 l-36 21 -9 -24 c-20 -53 -41 -119 -41 -130 0 -6 8
-17 18 -24 16 -12 16 -13 -3 -20 -27 -10 -35 -23 -35 -61 0 -30 -15 -52 -27
-39 -3 3 2 45 10 93 15 77 15 90 2 103 -13 13 -18 12 -44 -3 -55 -32 -108 -21
-169 37 -40 37 -62 76 -62 110 0 50 107 58 192 15 40 -21 68 -63 68 -103 0
-14 8 -30 19 -35 21 -11 31 -5 31 18 0 9 7 28 14 44 15 26 14 27 -14 27 -59 0
-74 18 -43 52 15 16 15 20 1 36 -20 22 -48 89 -48 114 0 40 63 233 83 256 11
12 32 22 46 22 14 0 33 5 41 10 22 14 50 12 116 -9z"/>
<path d="M1541 2316 c-10 -12 -2 -17 43 -30 64 -19 92 -50 82 -91 -7 -29 4
-33 26 -7 21 24 30 69 18 91 -11 21 -88 51 -131 51 -14 0 -32 -6 -38 -14z"/>
<path d="M1478 2308 c-27 -21 -30 -53 -9 -79 11 -13 21 -22 24 -19 8 9 16 110
8 110 -4 0 -14 -6 -23 -12z"/>
<path d="M1520 2246 c0 -39 9 -48 73 -69 l47 -16 0 40 c0 36 -3 41 -32 53 -18
7 -45 16 -60 20 -26 6 -28 4 -28 -28z"/>
<path d="M1737 2243 c-4 -3 -7 -14 -7 -23 0 -10 -9 -29 -21 -44 l-20 -26 25 0
c36 0 60 38 47 74 -11 28 -14 30 -24 19z"/>
<path d="M1430 2187 c-6 -23 -16 -57 -22 -75 -10 -34 -4 -92 14 -126 10 -18
13 -15 30 29 23 57 71 121 99 130 27 9 16 22 -27 30 -20 3 -47 17 -60 30 l-24
24 -10 -42z m39 -63 c-15 -18 -22 -13 -13 10 3 9 10 13 16 10 5 -3 4 -12 -3
-20z"/>
<path d="M1553 2125 c-31 -22 -59 -63 -82 -124 l-21 -51 33 -20 c62 -38 159
-19 205 40 11 14 27 51 36 82 9 32 19 63 21 70 8 21 -163 23 -192 3z m134 -38
c14 -15 -19 -87 -51 -112 -46 -35 -136 -34 -136 2 0 20 28 74 54 101 18 21 28
23 73 20 29 -3 56 -8 60 -11z"/>
<path d="M1434 1899 c-17 -18 -16 -19 24 -19 47 0 54 11 18 28 -20 9 -27 7
-42 -9z"/>
<path d="M1173 1894 c-8 -20 43 -92 86 -121 37 -25 71 -29 103 -12 19 10 13
15 -61 56 -44 24 -81 48 -81 54 0 15 12 11 90 -35 66 -39 75 -42 78 -26 5 30
-26 67 -69 84 -53 21 -138 21 -146 0z"/>
<path d="M1520 1872 c0 -8 43 -32 55 -32 3 0 5 9 5 20 0 16 -7 20 -30 20 -16
0 -30 -4 -30 -8z"/>
<path d="M716 1490 c-19 -12 -39 -17 -60 -13 -49 8 -63 -16 -69 -119 -4 -74
-2 -89 12 -102 23 -21 40 -20 64 2 11 10 38 18 66 19 25 1 51 3 56 3 6 0 34
-2 62 -6 40 -5 59 -3 78 10 23 15 27 15 50 0 20 -13 35 -15 72 -8 27 4 55 7
63 5 8 -1 63 -4 122 -7 106 -4 107 -3 128 23 l21 27 26 -27 c25 -25 26 -27 10
-45 -20 -22 -22 -56 -6 -101 8 -23 8 -35 -1 -46 -9 -11 -8 -19 7 -39 10 -14
21 -26 25 -26 4 0 24 -33 44 -72 72 -144 219 -339 265 -353 24 -8 59 19 59 44
0 9 -9 27 -20 41 -11 14 -20 32 -20 40 -1 18 -34 60 -48 60 -14 0 -72 71 -72
87 0 8 14 13 40 13 23 0 54 7 69 15 62 32 131 136 131 198 0 8 -14 27 -32 42
-29 25 -38 27 -89 21 -87 -9 -140 -37 -185 -97 -27 -36 -25 -38 -75 88 -17 43
-33 84 -36 91 -3 8 5 12 28 12 19 0 41 4 48 9 9 6 22 6 34 -1 29 -15 62 -2 88
37 28 41 36 43 49 11 15 -41 53 -59 107 -52 64 8 70 8 129 0 32 -4 59 -2 72 5
16 9 26 8 42 -1 16 -11 26 -10 55 6 24 13 38 16 47 9 7 -6 35 -14 61 -17 39
-6 53 -4 68 10 17 15 24 16 39 6 50 -31 80 4 80 94 0 46 -4 65 -18 77 -23 21
-50 22 -73 1 -12 -11 -23 -13 -36 -6 -37 20 -112 24 -134 8 -16 -11 -27 -12
-40 -5 -10 5 -33 9 -51 9 -18 0 -57 3 -86 6 -39 4 -59 2 -76 -9 -21 -14 -26
-14 -42 -2 -11 8 -37 15 -60 15 -47 0 -74 -22 -74 -63 0 -14 -4 -28 -9 -31
-13 -9 -20 16 -9 36 6 13 3 23 -11 37 -17 17 -34 19 -144 19 l-125 0 -30 -31
c-16 -18 -32 -39 -35 -47 -3 -8 -5 -1 -4 17 2 57 -10 62 -156 61 -92 -1 -138
-5 -153 -15 -18 -11 -23 -11 -33 0 -8 10 -41 14 -118 15 -79 1 -110 5 -123 17
-21 19 -28 18 -64 -5z m51 -28 c-20 -22 -24 -131 -5 -150 9 -9 3 -12 -27 -11
-22 0 -34 3 -27 6 6 2 12 18 12 34 0 26 -4 29 -30 29 -28 0 -30 -2 -30 -38 0
-42 -14 -62 -43 -62 -17 0 -17 1 -3 16 19 19 22 134 4 152 -9 9 -3 12 28 11
21 0 33 -3 27 -6 -7 -2 -13 -18 -13 -34 0 -26 4 -29 30 -29 27 0 30 3 30 31 0
42 17 69 42 69 20 0 20 -1 5 -18z m153 -32 c30 -30 27 -83 -6 -109 -79 -62
-180 34 -112 106 28 30 89 32 118 3z m85 -42 l0 -63 30 0 30 0 0 63 c0 60 1
62 25 61 14 0 19 -3 13 -6 -8 -3 -13 -25 -13 -58 0 -60 -16 -85 -56 -85 -50 0
-64 16 -64 73 0 29 -5 58 -12 65 -9 9 -5 12 18 12 l29 0 0 -62z m205 47 c0
-18 -12 -19 -28 -3 -9 9 -15 9 -24 -1 -11 -10 -6 -18 25 -43 41 -34 44 -43 20
-70 -28 -31 -100 -17 -86 17 3 10 9 9 24 -6 19 -19 49 -16 49 5 0 6 -16 21
-35 34 -55 35 -42 82 22 82 23 0 33 -5 33 -15z m129 -7 c0 -13 -3 -17 -6 -10
-2 6 -16 12 -29 12 -19 0 -24 -5 -24 -25 0 -27 18 -33 38 -13 9 9 12 6 12 -17
0 -23 -3 -26 -12 -17 -20 20 -38 14 -38 -13 0 -20 5 -25 25 -25 13 0 29 8 34
18 11 19 15 3 5 -22 -5 -12 -20 -16 -62 -16 -44 0 -53 3 -44 12 16 16 16 125
0 131 -7 3 13 6 45 6 53 1 57 -1 56 -21z m208 0 c33 -30 31 -80 -3 -107 -55
-43 -134 -11 -134 55 0 21 8 42 20 54 28 28 87 27 117 -2z m142 0 c0 -13 -3
-17 -6 -10 -2 6 -16 12 -29 12 -19 0 -24 -5 -24 -25 0 -27 18 -33 38 -13 9 9
12 6 12 -17 0 -23 -3 -26 -12 -17 -7 7 -18 12 -25 12 -17 0 -17 -57 0 -63 6
-3 -6 -6 -27 -6 -31 -1 -37 2 -28 11 7 7 12 35 12 63 0 28 -5 56 -12 63 -9 9
1 12 45 12 53 0 57 -2 56 -22z m153 11 c14 -8 18 -17 14 -34 -4 -15 -1 -25 9
-29 20 -7 19 -40 -1 -60 -35 -35 -125 -8 -123 37 0 21 1 21 12 -3 11 -23 12
-21 15 29 2 37 -1 57 -10 62 -20 13 60 11 84 -2z m188 -9 c20 -20 27 -74 12
-96 -11 -18 -49 -34 -77 -34 -34 0 -75 42 -75 76 0 65 94 100 140 54z m102
-27 l48 -47 0 41 c0 24 -5 43 -12 46 -7 3 5 5 27 5 22 0 34 -2 28 -5 -9 -3
-13 -28 -13 -76 l0 -71 -50 49 -50 49 0 -41 c0 -24 5 -43 13 -46 6 -3 -5 -6
-27 -6 -33 -1 -37 1 -26 14 7 9 11 37 8 75 -1 33 -1 60 2 60 2 0 26 -21 52
-47z m218 -6 c0 24 -5 43 -12 46 -7 3 5 6 27 6 26 0 35 -2 26 -8 -10 -6 -12
-26 -9 -75 2 -36 2 -66 1 -66 -2 0 -25 20 -51 45 l-47 46 -3 -31 c-2 -17 2
-38 9 -46 10 -12 5 -14 -27 -13 -22 0 -33 3 -26 6 8 3 12 28 12 76 l0 71 50
-49 50 -49 0 41z m-871 -247 c22 -68 72 -182 86 -198 2 -2 12 1 23 7 16 9 19
18 15 49 -4 31 0 44 21 69 32 38 96 65 158 66 57 1 80 -15 71 -52 -27 -115
-141 -194 -210 -146 -19 13 -23 13 -44 -3 l-22 -19 33 -49 c65 -96 92 -126
103 -115 6 6 15 11 19 11 13 0 9 -28 -4 -33 -9 -3 -2 -16 20 -39 31 -33 41
-58 23 -58 -12 0 -105 108 -156 180 -21 30 -61 98 -88 150 -33 63 -56 97 -70
100 -27 7 -34 30 -9 30 20 0 20 0 1 55 -21 61 -24 88 -8 83 6 -2 23 -42 38
-88z"/>
<path d="M839 1430 c-22 -13 -31 -53 -19 -84 7 -20 16 -26 40 -26 24 0 33 6
40 26 13 32 3 72 -20 84 -22 12 -21 12 -41 0z"/>
<path d="M1456 1418 c-31 -44 -13 -98 34 -98 35 0 42 10 42 58 0 57 -47 82
-76 40z"/>
<path d="M1800 1375 c0 -47 3 -55 19 -55 27 0 34 27 12 49 -13 13 -16 22 -9
29 11 11 3 32 -13 32 -5 0 -9 -25 -9 -55z"/>
<path d="M1948 1429 c-12 -7 -18 -22 -18 -47 0 -50 11 -64 46 -60 38 4 55 47
33 86 -17 30 -36 37 -61 21z"/>
<path d="M1706 1104 c-22 -8 -48 -21 -57 -30 -18 -16 -35 -71 -26 -81 3 -3 37
16 76 42 38 26 76 45 83 43 7 -3 -23 -28 -66 -57 -81 -55 -86 -70 -24 -71 49
0 138 96 138 150 0 17 -6 20 -42 19 -24 0 -61 -7 -82 -15z"/>
</g>
</svg>
