<?xml version="1.0" standalone="no"?>
<!DOCTYPE svg PUBLIC "-//W3C//DTD SVG 20010904//EN"
 "http://www.w3.org/TR/2001/REC-SVG-20010904/DTD/svg10.dtd">
<svg version="1.0" xmlns="http://www.w3.org/2000/svg"
 width="900.000000pt" height="900.000000pt" viewBox="0 0 900.000000 900.000000"
 preserveAspectRatio="xMidYMid meet">
<metadata>
Created by potrace 1.10, written by Peter Selinger 2001-2011
</metadata>
<g transform="translate(0.000000,900.000000) scale(0.100000,-0.100000)"
fill="#000000" stroke="none">
<path d="M0 4500 l0 -4500 4500 0 4500 0 0 4500 0 4500 -4500 0 -4500 0 0
-4500z m4830 3159 c36 -6 97 -14 135 -19 108 -13 204 -33 368 -77 90 -24 326
-102 365 -122 9 -4 33 -15 52 -23 60 -26 304 -148 335 -168 17 -11 39 -24 50
-30 145 -77 420 -290 595 -460 142 -138 334 -372 430 -525 111 -175 200 -342
255 -475 15 -36 31 -69 36 -74 5 -6 9 -19 9 -31 0 -12 5 -26 11 -32 6 -6 14
-26 19 -44 8 -32 15 -55 45 -139 22 -60 67 -243 89 -355 44 -233 50 -295 50
-595 0 -301 -4 -352 -50 -595 -25 -131 -66 -288 -101 -390 -14 -38 -28 -83
-32 -100 -8 -29 -18 -54 -49 -125 -8 -19 -21 -48 -28 -65 -15 -35 -111 -233
-124 -255 -5 -8 -37 -62 -71 -120 -34 -58 -75 -121 -90 -141 -16 -20 -29 -40
-29 -44 0 -22 -212 -275 -338 -403 -156 -158 -368 -332 -527 -432 -177 -111
-347 -201 -502 -265 -174 -73 -261 -103 -403 -140 -36 -9 -87 -23 -114 -31
-26 -8 -56 -14 -65 -14 -9 0 -47 -6 -86 -14 -178 -37 -289 -46 -575 -46 -286
0 -378 7 -565 46 -38 8 -79 14 -89 14 -11 0 -44 7 -75 16 -31 8 -81 22 -111
30 -30 9 -68 20 -85 26 -16 5 -43 13 -60 18 -16 5 -55 18 -85 30 -30 12 -66
25 -80 30 -137 44 -426 193 -614 318 -352 232 -678 562 -906 917 -86 135 -197
342 -257 482 -34 80 -42 100 -56 138 -27 74 -39 110 -47 140 -5 17 -18 62 -30
100 -25 86 -50 185 -60 245 -4 25 -12 72 -18 105 -31 163 -37 253 -37 525 0
272 6 362 37 525 6 33 14 80 18 105 10 60 35 159 60 245 12 39 25 84 30 100
14 51 55 163 77 215 8 19 21 49 28 65 22 52 145 298 172 345 156 272 430 603
662 801 35 30 69 59 75 65 12 12 162 123 228 170 24 16 90 58 148 93 58 34
112 66 120 71 59 36 295 142 410 185 19 7 53 19 75 28 51 19 124 41 200 60 33
9 80 21 105 28 25 7 65 16 90 20 25 4 70 12 100 18 164 32 256 39 530 40 157
0 314 -4 350 -10z"/>
<path d="M4300 7559 c-189 -17 -411 -53 -511 -85 -26 -8 -57 -14 -68 -14 -12
0 -32 -5 -44 -12 -12 -6 -38 -15 -57 -19 -19 -4 -51 -13 -70 -19 -88 -32 -108
-39 -150 -55 -25 -10 -58 -23 -75 -31 -124 -54 -156 -69 -205 -93 -69 -34
-146 -77 -185 -102 -16 -10 -39 -23 -50 -29 -57 -29 -229 -150 -331 -232 -263
-212 -508 -493 -679 -780 -85 -142 -192 -365 -252 -523 -8 -22 -21 -55 -29
-73 -8 -18 -14 -39 -14 -47 0 -8 -6 -29 -14 -47 -31 -74 -92 -318 -106 -428
-4 -30 -12 -91 -18 -135 -35 -257 -34 -445 4 -730 30 -224 117 -565 179 -700
7 -16 30 -69 50 -117 36 -88 140 -296 176 -353 10 -16 23 -39 29 -50 19 -35
34 -58 97 -150 261 -378 598 -684 1018 -921 30 -18 225 -114 265 -132 19 -8
44 -19 54 -25 11 -5 31 -13 45 -17 14 -5 51 -18 81 -30 304 -116 743 -200
1050 -200 265 0 751 82 928 156 18 8 39 14 47 14 8 0 29 6 47 14 18 8 53 22
78 31 139 54 284 124 463 224 280 157 602 432 818 701 69 85 214 292 232 330
4 8 16 29 26 45 58 89 190 355 212 425 4 14 17 50 29 80 103 269 164 548 194
890 13 144 13 187 0 335 -14 167 -30 287 -60 435 -24 117 -67 273 -90 328 -8
18 -14 39 -14 47 0 8 -6 29 -14 47 -8 18 -22 53 -31 78 -17 47 -26 66 -69 163
-40 87 -74 156 -111 222 -19 33 -39 69 -45 80 -43 79 -178 275 -259 375 -95
118 -312 337 -411 415 -41 33 -81 65 -89 73 -12 12 -125 90 -169 117 -9 6 -44
28 -77 50 -70 46 -74 49 -221 125 -127 66 -340 160 -364 160 -9 0 -20 4 -25 8
-10 9 -99 38 -200 67 -27 8 -74 21 -104 29 -29 9 -62 16 -73 16 -11 0 -43 6
-71 14 -114 30 -458 67 -599 65 -40 -1 -116 -6 -168 -10z m560 -519 c47 -17
95 -30 107 -30 12 0 24 -4 27 -9 3 -5 26 -14 51 -20 54 -14 107 -58 152 -128
18 -29 39 -53 45 -53 16 0 88 -71 88 -86 0 -6 7 -17 15 -24 20 -17 20 -164 0
-200 -8 -14 -14 -37 -15 -52 0 -15 -6 -42 -14 -60 -8 -18 -22 -60 -31 -93 -9
-33 -23 -75 -31 -93 -8 -18 -14 -45 -14 -60 -1 -15 -7 -38 -15 -52 -8 -14 -14
-33 -15 -42 0 -10 -16 -52 -37 -95 -28 -60 -53 -95 -110 -150 -41 -40 -79 -73
-85 -73 -6 0 -19 -6 -27 -13 -9 -7 -36 -21 -61 -31 -25 -10 -64 -26 -87 -36
l-41 -19 14 -42 c19 -55 15 -128 -9 -143 -14 -9 -38 0 -126 46 -86 44 -112 54
-123 45 -16 -13 -49 -100 -99 -252 -39 -120 -48 -151 -54 -197 -6 -47 -6 -47
30 -62 29 -12 36 -20 33 -38 -2 -18 -10 -24 -38 -26 -48 -5 -57 -15 -69 -75
-6 -29 -18 -92 -27 -140 -15 -77 -20 -88 -37 -85 -35 5 -43 31 -28 95 7 32 16
90 20 128 4 39 13 80 19 92 7 12 12 38 12 58 0 19 6 51 14 69 7 18 17 51 21
74 7 41 6 41 -42 71 -71 45 -96 48 -132 15 -65 -58 -107 -74 -191 -74 -92 0
-143 19 -240 91 -149 110 -254 258 -266 378 -8 70 -2 81 60 114 36 19 57 22
176 22 159 0 206 -11 355 -81 48 -24 115 -94 147 -156 23 -44 28 -66 28 -129
0 -60 4 -79 18 -91 18 -15 90 -58 98 -58 11 0 44 67 44 91 0 14 4 29 9 35 14
14 61 156 55 166 -3 4 -24 8 -47 9 -23 0 -75 6 -116 13 -108 20 -116 41 -41
120 28 29 50 60 50 69 0 10 -19 43 -42 75 -24 32 -51 75 -61 95 -9 20 -25 54
-35 74 -25 53 -25 303 1 350 9 18 17 43 17 57 0 14 6 40 14 58 8 18 22 60 31
93 9 33 23 75 31 93 8 18 14 45 14 60 1 15 7 38 15 52 8 14 14 36 15 50 0 37
57 114 111 149 42 27 56 31 118 31 40 0 73 5 77 11 13 22 90 49 139 48 29 0
85 -12 135 -29z m-2570 -2624 c0 -3 -10 -22 -22 -43 -22 -36 -23 -48 -23 -251
l0 -212 -50 0 -50 0 3 95 3 95 -90 0 -91 0 0 -95 c0 -104 -18 -158 -62 -189
-29 -21 -88 -21 -88 -1 0 8 4 15 10 15 5 0 16 13 25 30 20 38 22 439 3 458 -9
9 4 12 62 12 58 0 71 -3 62 -12 -8 -8 -12 -45 -12 -100 l0 -89 88 3 87 3 5 95
c6 105 19 140 66 170 26 17 74 27 74 16z m382 -93 c52 -19 72 -36 109 -87 26
-35 29 -47 29 -113 0 -124 -51 -187 -175 -218 -72 -18 -75 -18 -136 0 -112 34
-169 107 -169 215 0 98 44 162 140 203 48 21 150 21 202 0z m909 7 c25 -14 25
-50 0 -50 -10 0 -24 7 -31 15 -18 22 -76 19 -100 -5 -25 -25 -26 -52 -2 -73
19 -17 122 -87 128 -87 13 0 46 -39 55 -67 8 -25 7 -43 -2 -70 -14 -44 -27
-56 -89 -84 -50 -23 -91 -21 -152 5 -36 15 -38 19 -38 61 0 54 15 66 29 23 12
-36 67 -78 101 -78 35 0 80 40 80 72 0 28 -43 67 -140 125 -43 26 -70 70 -70
114 0 25 9 41 40 71 39 36 44 38 106 38 36 0 74 -5 85 -10z m403 4 c10 -4 16
-18 16 -40 l0 -33 -34 20 c-25 14 -48 19 -83 17 l-48 -3 0 -80 0 -80 43 -3
c28 -2 53 3 68 13 l24 15 0 -45 0 -45 -24 15 c-15 10 -40 15 -68 13 l-43 -3 0
-75 0 -75 62 0 c44 0 66 5 80 18 28 25 35 21 31 -15 l-3 -33 -135 -3 -135 -3
3 191 c3 169 2 194 -13 210 -17 18 -15 19 46 23 123 6 198 7 213 1z m578 -14
c97 -43 138 -102 138 -201 0 -105 -54 -177 -158 -209 -78 -24 -95 -25 -163 -3
-114 36 -159 96 -159 213 0 105 31 154 130 201 50 25 156 24 212 -1z m476 -12
c3 -22 -1 -28 -15 -28 -11 0 -24 5 -30 11 -5 5 -32 9 -59 7 l-49 -3 -3 -82 -3
-83 40 0 c22 0 51 4 64 9 22 9 25 7 31 -21 8 -39 6 -40 -32 -27 -17 6 -45 9
-64 7 l-33 -3 0 -93 0 -92 -55 0 -55 0 3 196 c2 134 -1 200 -8 209 -10 12 0
15 52 18 35 2 97 3 138 3 74 -1 75 -1 78 -28z m424 16 c40 -12 67 -26 83 -46
29 -34 31 -57 10 -99 -17 -33 -13 -49 14 -49 29 0 61 -54 61 -103 0 -67 -58
-112 -171 -132 -78 -14 -219 51 -219 101 0 19 19 18 26 -1 4 -8 12 -15 20 -15
19 0 21 324 2 337 -8 5 11 10 47 14 33 3 62 6 64 7 3 1 31 -5 63 -14z m544 -2
c108 -49 139 -94 139 -202 0 -85 -21 -132 -78 -174 -131 -96 -340 -48 -390 90
-42 119 4 231 119 284 53 25 159 26 210 2z m-3014 -161 l-3 -168 38 -32 c56
-46 77 -49 125 -15 59 41 70 81 66 229 -2 66 -8 128 -12 138 -7 15 -3 17 33
17 39 0 53 -11 31 -25 -6 -4 -10 -67 -10 -157 l0 -150 -29 -37 c-21 -26 -46
-43 -84 -56 -53 -18 -58 -18 -120 -1 -47 13 -74 27 -98 52 l-34 35 -4 157 c-1
86 -8 163 -13 170 -8 9 4 12 53 12 l64 0 -3 -169z m3640 157 c-9 -9 -12 -68
-12 -204 0 -106 -4 -195 -8 -198 -4 -2 -66 51 -137 119 -72 68 -136 124 -142
125 -10 0 -13 -31 -13 -125 l0 -125 -51 0 c-48 0 -51 1 -45 23 3 12 6 104 6
205 0 130 3 182 12 182 6 0 54 -42 106 -92 53 -51 110 -108 129 -125 19 -18
38 -33 43 -33 15 0 13 233 -2 248 -9 9 3 12 57 12 54 0 66 -3 57 -12z m306
-163 c46 -44 87 -81 93 -83 14 -5 12 231 -3 246 -9 9 4 12 62 12 70 0 72 -1
57 -18 -15 -16 -17 -46 -17 -205 0 -135 -3 -187 -12 -187 -6 0 -57 45 -112 99
-141 138 -164 157 -172 137 -3 -9 -5 -68 -3 -131 l4 -115 -47 0 -48 0 0 203
c0 112 3 207 7 210 6 7 47 -29 191 -168z m-1711 -122 c-3 -10 -5 -2 -5 17 0
19 2 27 5 18 2 -10 2 -26 0 -35z m-877 -373 c11 -21 20 -50 20 -64 0 -14 6
-40 14 -58 7 -18 23 -62 34 -98 27 -84 42 -128 58 -165 62 -148 84 -196 137
-307 53 -108 65 -128 85 -128 27 0 122 59 122 76 0 6 -7 28 -15 47 -20 48 -19
92 3 153 45 129 163 220 356 277 104 30 275 30 332 0 48 -26 56 -45 47 -127
-6 -55 -26 -104 -91 -222 -19 -34 -191 -204 -206 -204 -8 0 -19 -6 -25 -14 -7
-8 -45 -22 -84 -32 -67 -15 -77 -15 -135 0 -35 9 -79 28 -97 42 -42 32 -63 28
-128 -21 -45 -35 -59 -66 -36 -80 5 -4 15 -17 20 -28 13 -30 26 -50 84 -135
28 -40 55 -81 60 -91 6 -9 46 -65 90 -124 83 -112 96 -120 141 -91 19 13 30
15 49 6 29 -14 24 -45 -11 -61 -42 -19 -29 -48 67 -152 68 -74 90 -104 87
-121 -2 -14 -11 -24 -24 -26 -15 -2 -41 19 -97 80 -126 139 -200 228 -280 338
-42 58 -80 110 -84 115 -71 90 -277 449 -336 585 -83 192 -82 191 -132 183
-39 -6 -75 11 -75 35 0 27 20 42 58 42 31 0 34 2 27 23 -3 12 -10 36 -15 52
-5 17 -17 55 -28 85 -34 97 -62 190 -62 210 0 17 23 39 42 40 4 0 17 -18 28
-40z"/>
<path d="M4666 6980 c-32 -10 -86 -57 -86 -75 0 -10 119 -54 195 -71 70 -16
134 -53 163 -93 38 -52 57 -126 43 -165 -17 -43 -14 -76 7 -76 48 0 132 90
132 143 0 13 7 38 15 53 24 47 19 96 -15 143 -35 47 -69 65 -217 111 -112 34
-192 45 -237 30z"/>
<path d="M4465 6934 c-55 -20 -89 -56 -109 -117 -17 -51 -17 -53 4 -100 14
-32 34 -56 60 -72 65 -41 69 -38 68 68 0 62 5 104 16 129 17 39 21 94 9 101
-5 3 -26 -2 -48 -9z"/>
<path d="M4542 6797 c-16 -44 -15 -100 2 -140 16 -40 74 -97 98 -97 9 0 32 -6
50 -14 56 -24 188 -58 203 -52 8 3 15 15 15 27 0 13 5 37 12 55 13 37 -2 103
-31 138 -20 23 -84 56 -110 56 -11 0 -35 6 -53 14 -54 22 -134 46 -155 46 -12
0 -23 -11 -31 -33z"/>
<path d="M5195 6718 c-2 -7 -14 -48 -27 -91 -18 -61 -33 -89 -65 -125 -24 -25
-43 -49 -43 -53 0 -12 68 -20 108 -13 57 11 97 47 115 104 14 44 14 55 2 96
-20 69 -77 120 -90 82z"/>
<path d="M4294 6625 c-7 -19 -14 -45 -14 -57 -1 -13 -7 -34 -15 -48 -8 -14
-14 -37 -15 -52 0 -15 -6 -42 -14 -60 -22 -49 -46 -167 -46 -220 0 -68 25
-166 59 -229 33 -62 55 -73 66 -32 19 77 108 274 132 295 7 6 13 14 13 18 0
28 139 163 195 190 25 12 45 25 45 29 0 12 -46 31 -135 56 -129 38 -153 49
-190 91 -19 21 -35 42 -35 47 0 4 -7 7 -16 7 -8 0 -22 -16 -30 -35z"/>
<path d="M4735 6418 c-43 -15 -125 -71 -161 -110 -76 -80 -204 -319 -204 -380
0 -11 -8 -33 -17 -50 l-18 -30 37 -32 c21 -18 68 -47 105 -66 66 -32 72 -33
194 -33 125 0 126 0 205 38 89 42 195 141 227 211 10 21 25 52 33 67 8 16 14
40 14 53 0 14 5 34 11 45 5 11 19 57 31 102 11 45 27 95 35 110 18 35 10 62
-15 52 -65 -28 -161 -23 -266 14 -64 23 -160 27 -211 9z"/>
<path d="M4307 5704 c-48 -47 -57 -64 -34 -64 6 0 52 -5 100 -11 94 -11 117
-5 117 31 0 17 -66 60 -92 60 -6 0 -19 7 -28 15 -15 14 -21 11 -63 -31z"/>
<path d="M3594 5727 c-75 -15 -94 -29 -94 -73 0 -65 100 -217 199 -303 90 -78
165 -111 250 -111 72 0 133 21 163 57 11 13 9 18 -11 32 -29 20 -126 76 -166
95 -16 8 -66 35 -110 60 -44 25 -99 54 -122 66 -44 22 -55 46 -27 57 17 6 53
-10 229 -107 61 -33 124 -67 140 -76 17 -8 46 -24 65 -34 42 -21 50 -14 50 47
0 132 -155 256 -355 283 -123 17 -151 18 -211 7z"/>
<path d="M4557 5633 c-4 -3 -7 -17 -7 -30 0 -20 12 -30 76 -59 103 -47 108
-46 102 17 -3 27 -9 54 -14 58 -12 11 -149 23 -157 14z"/>
<path d="M2489 4276 c-41 -42 -57 -85 -58 -150 -1 -51 15 -121 33 -145 19 -24
85 -61 110 -61 13 0 43 15 67 33 32 25 46 45 60 87 23 71 23 76 -1 154 -17 54
-27 70 -58 91 -56 38 -110 35 -153 -9z"/>
<path d="M4378 4277 c-93 -82 -86 -255 14 -327 47 -35 75 -37 117 -12 40 24
65 58 79 108 52 180 -91 337 -210 231z"/>
<path d="M5397 4283 c-9 -8 -9 -316 -1 -337 15 -40 105 1 123 57 20 60 -11
107 -84 132 -19 6 -19 7 -2 19 30 23 41 70 22 105 -14 29 -42 40 -58 24z"/>
<path d="M5843 4290 c-42 -25 -59 -53 -73 -121 -20 -101 16 -195 87 -231 95
-48 191 41 192 180 2 139 -109 232 -206 172z"/>
<path d="M5255 3350 c-118 -14 -261 -79 -328 -149 -48 -50 -77 -116 -77 -173
0 -90 21 -89 163 9 296 204 306 210 321 184 13 -20 -29 -53 -296 -229 -131
-86 -143 -106 -83 -135 49 -23 164 -23 208 1 159 85 314 286 319 416 1 31 -1
58 -5 62 -19 19 -122 26 -222 14z"/>
</g>
</svg>
